<?xml version="1.0" encoding="UTF-8"?>
<svg version="1.1" xmlns="http://www.w3.org/2000/svg" width="200" height="200">
<path d="M0 0 C66 0 132 0 200 0 C200 66 200 132 200 200 C134 200 68 200 0 200 C0 134 0 68 0 0 Z " fill="#FCEB38" transform="translate(0,0)"/>
<path d="M0 0 C7.92 0 15.84 0 24 0 C24 0.99 24 1.98 24 3 C21.69 3 19.38 3 17 3 C17 4.32 17 5.64 17 7 C19.64 7 22.28 7 25 7 C25 6.01 25 5.02 25 4 C27.97 4 30.94 4 34 4 C34 4.99 34 5.98 34 7 C37.3 7 40.6 7 44 7 C44 7.99 44 8.98 44 10 C46.64 10 49.28 10 52 10 C52 34.09 52 58.18 52 83 C50.68 83 49.36 83 48 83 C48 83.99 48 84.98 48 86 C47.01 86 46.02 86 45 86 C45 86.99 45 87.98 45 89 C47.31 89 49.62 89 52 89 C52 90.32 52 91.64 52 93 C54.31 93 56.62 93 59 93 C59 93.99 59 94.98 59 96 C59.99 96 60.98 96 62 96 C62 103.92 62 111.84 62 120 C58.7 120 55.4 120 52 120 C52 122.64 52 125.28 52 128 C49.69 128 47.38 128 45 128 C45 128.99 45 129.98 45 131 C42.69 131 40.38 131 38 131 C38 131.99 38 132.98 38 134 C33.38 134 28.76 134 24 134 C24 136.64 24 139.28 24 142 C21.69 142 19.38 142 17 142 C17 142.66 17 143.32 17 144 C15.02 144 13.04 144 11 144 C11 145.32 11 146.64 11 148 C8.36 148 5.72 148 3 148 C3 149.32 3 150.64 3 152 C1.02 152 -0.96 152 -3 152 C-3 152.99 -3 153.98 -3 155 C-5.64 155 -8.28 155 -11 155 C-11 155.99 -11 156.98 -11 158 C-12.98 158 -14.96 158 -17 158 C-17 159.32 -17 160.64 -17 162 C-19.31 162 -21.62 162 -24 162 C-24 160.68 -24 159.36 -24 158 C-26.31 158 -28.62 158 -31 158 C-31 157.01 -31 156.02 -31 155 C-33.31 155 -35.62 155 -38 155 C-38 154.01 -38 153.02 -38 152 C-40.31 152 -42.62 152 -45 152 C-45 150.68 -45 149.36 -45 148 C-47.31 148 -49.62 148 -52 148 C-52 146.68 -52 145.36 -52 144 C-54.31 144 -56.62 144 -59 144 C-59 143.34 -59 142.68 -59 142 C-61.31 142 -63.62 142 -66 142 C-66 140.68 -66 139.36 -66 138 C-67.98 138 -69.96 138 -72 138 C-72 136.68 -72 135.36 -72 134 C-74.64 134 -77.28 134 -80 134 C-80 133.01 -80 132.02 -80 131 C-80.66 131 -81.32 131 -82 131 C-82 121.76 -82 112.52 -82 103 C-81.34 103 -80.68 103 -80 103 C-80 102.01 -80 101.02 -80 100 C-78.68 100 -77.36 100 -76 100 C-76 98.68 -76 97.36 -76 96 C-73.69 96 -71.38 96 -69 96 C-69 95.01 -69 94.02 -69 93 C-66.69 93 -64.38 93 -62 93 C-62 91.68 -62 90.36 -62 89 C-59.69 89 -57.38 89 -55 89 C-55 88.01 -55 87.02 -55 86 C-57.31 86 -59.62 86 -62 86 C-62 85.01 -62 84.02 -62 83 C-64.31 83 -66.62 83 -69 83 C-69 81.68 -69 80.36 -69 79 C-69.99 79 -70.98 79 -72 79 C-72 71.08 -72 63.16 -72 55 C-73.32 55 -74.64 55 -76 55 C-76 53.68 -76 52.36 -76 51 C-77.32 51 -78.64 51 -80 51 C-80 41.76 -80 32.52 -80 23 C-78.68 23 -77.36 23 -76 23 C-76 22.34 -76 21.68 -76 21 C-72.7 21 -69.4 21 -66 21 C-66 19.68 -66 18.36 -66 17 C-63.36 17 -60.72 17 -58 17 C-58 16.01 -58 15.02 -58 14 C-56.02 14 -54.04 14 -52 14 C-52 12.68 -52 11.36 -52 10 C-49.36 10 -46.72 10 -44 10 C-44 9.01 -44 8.02 -44 7 C-40.7 7 -37.4 7 -34 7 C-34 5.68 -34 4.36 -34 3 C-22.78 3 -11.56 3 0 3 C0 2.01 0 1.02 0 0 Z " fill="#C8BEBD" transform="translate(114,24)"/>
<path d="M0 0 C7.92 0 15.84 0 24 0 C24 0.99 24 1.98 24 3 C21.69 3 19.38 3 17 3 C17 4.32 17 5.64 17 7 C19.64 7 22.28 7 25 7 C25 6.01 25 5.02 25 4 C27.97 4 30.94 4 34 4 C34 4.99 34 5.98 34 7 C37.3 7 40.6 7 44 7 C44 7.99 44 8.98 44 10 C46.64 10 49.28 10 52 10 C52 32.77 52 55.54 52 79 C50.68 79 49.36 79 48 79 C48 79.99 48 80.98 48 82 C45.69 82 43.38 82 41 82 C41 83.32 41 84.64 41 86 C38.69 86 36.38 86 34 86 C34 86.99 34 87.98 34 89 C31.69 89 29.38 89 27 89 C27 89.99 27 90.98 27 92 C25.02 92.33 23.04 92.66 21 93 C20.505 94.485 20.505 94.485 20 96 C17.69 96 15.38 96 13 96 C13 97.32 13 98.64 13 100 C11.02 100 9.04 100 7 100 C7 100.99 7 101.98 7 103 C4.69 103 2.38 103 0 103 C0 103.99 0 104.98 0 106 C-2.31 106 -4.62 106 -7 106 C-7 107.32 -7 108.64 -7 110 C-9.31 110 -11.62 110 -14 110 C-14 111.32 -14 112.64 -14 114 C-14.99 114 -15.98 114 -17 114 C-17 91.23 -17 68.46 -17 45 C-18.32 45 -19.64 45 -21 45 C-21 43.68 -21 42.36 -21 41 C-22.98 41 -24.96 41 -27 41 C-27 39.68 -27 38.36 -27 37 C-29.31 37 -31.62 37 -34 37 C-34 36.34 -34 35.68 -34 35 C-33.01 35 -32.02 35 -31 35 C-31 33.68 -31 32.36 -31 31 C-32.32 31 -33.64 31 -35 31 C-35 31.99 -35 32.98 -35 34 C-38.47325181 35.1577506 -41.36067448 35.06866652 -45 35 C-45 33.68 -45 32.36 -45 31 C-49.29 31 -53.58 31 -58 31 C-58 29.68 -58 28.36 -58 27 C-61.3 27 -64.6 27 -68 27 C-68 26.01 -68 25.02 -68 24 C-69.32 24 -70.64 24 -72 24 C-72 23.01 -72 22.02 -72 21 C-70.02 21 -68.04 21 -66 21 C-66 19.68 -66 18.36 -66 17 C-63.36 17 -60.72 17 -58 17 C-58 16.01 -58 15.02 -58 14 C-56.02 14 -54.04 14 -52 14 C-52 12.68 -52 11.36 -52 10 C-49.36 10 -46.72 10 -44 10 C-44 9.01 -44 8.02 -44 7 C-40.7 7 -37.4 7 -34 7 C-34 5.68 -34 4.36 -34 3 C-22.78 3 -11.56 3 0 3 C0 2.01 0 1.02 0 0 Z " fill="#E6DBDB" transform="translate(114,24)"/>
<path d="M0 0 C1.32 0 2.64 0 4 0 C4 0.99 4 1.98 4 3 C5.32 3 6.64 3 8 3 C8 3.99 8 4.98 8 6 C11.3 6 14.6 6 18 6 C18 7.32 18 8.64 18 10 C22.29 10 26.58 10 31 10 C31 11.32 31 12.64 31 14 C34.3 13.67 37.6 13.34 41 13 C41 12.01 41 11.02 41 10 C42.32 10 43.64 10 45 10 C45 11.32 45 12.64 45 14 C44.01 14 43.02 14 42 14 C42 14.66 42 15.32 42 16 C44.31 16 46.62 16 49 16 C49 17.32 49 18.64 49 20 C50.98 20 52.96 20 55 20 C55 21.32 55 22.64 55 24 C56.32 24 57.64 24 59 24 C59 46.77 59 69.54 59 93 C59.99 93 60.98 93 62 93 C62 91.68 62 90.36 62 89 C64.31 89 66.62 89 69 89 C69 87.68 69 86.36 69 85 C71.31 85 73.62 85 76 85 C76 84.01 76 83.02 76 82 C78.31 82 80.62 82 83 82 C83 81.01 83 80.02 83 79 C84.98 79 86.96 79 89 79 C89 77.68 89 76.36 89 75 C91.31 75 93.62 75 96 75 C96.495 73.02 96.495 73.02 97 71 C98.98 71 100.96 71 103 71 C103 70.01 103 69.02 103 68 C105.31 68 107.62 68 110 68 C110 67.01 110 66.02 110 65 C112.31 65 114.62 65 117 65 C117 63.68 117 62.36 117 61 C119.31 61 121.62 61 124 61 C124 60.01 124 59.02 124 58 C125.32 58 126.64 58 128 58 C128 59.32 128 60.64 128 62 C126.68 62 125.36 62 124 62 C124 62.99 124 63.98 124 65 C123.01 65 122.02 65 121 65 C121 65.99 121 66.98 121 68 C123.31 68 125.62 68 128 68 C128 69.32 128 70.64 128 72 C123.38 72 118.76 72 114 72 C114 72.99 114 73.98 114 75 C111.69 75 109.38 75 107 75 C107 76.32 107 77.64 107 79 C104.69 79 102.38 79 100 79 C100 79.99 100 80.98 100 82 C97.69 82 95.38 82 93 82 C93 82.99 93 83.98 93 85 C90.69 85 88.38 85 86 85 C86 86.32 86 87.64 86 89 C83.69 89 81.38 89 79 89 C79 90.32 79 91.64 79 93 C77.02 93 75.04 93 73 93 C73 93.99 73 94.98 73 96 C70.36 96 67.72 96 65 96 C65 96.99 65 97.98 65 99 C60.38 99 55.76 99 51 99 C51 98.01 51 97.02 51 96 C49.02 96 47.04 96 45 96 C45 95.01 45 94.02 45 93 C42.69 93 40.38 93 38 93 C38 91.68 38 90.36 38 89 C37.01 89 36.02 89 35 89 C35 88.01 35 87.02 35 86 C33.68 86 32.36 86 31 86 C31 84.68 31 83.36 31 82 C28.69 82 26.38 82 24 82 C24 81.01 24 80.02 24 79 C21.69 79 19.38 79 17 79 C17 78.01 17 77.02 17 76 C14.03 76 11.06 76 8 76 C8 76.99 8 77.98 8 79 C5.36 79 2.72 79 0 79 C0 77.68 0 76.36 0 75 C2.31 75 4.62 75 7 75 C7 74.01 7 73.02 7 72 C9.31 72 11.62 72 14 72 C14 70.68 14 69.36 14 68 C16.31 68 18.62 68 21 68 C21 67.01 21 66.02 21 65 C18.69 65 16.38 65 14 65 C14 64.01 14 63.02 14 62 C11.69 62 9.38 62 7 62 C7 60.68 7 59.36 7 58 C6.01 58 5.02 58 4 58 C4 50.08 4 42.16 4 34 C2.68 34 1.36 34 0 34 C0 32.68 0 31.36 0 30 C-1.32 30 -2.64 30 -4 30 C-4 20.76 -4 11.52 -4 2 C-2.68 2 -1.36 2 0 2 C0 1.34 0 0.68 0 0 Z " fill="#A19194" transform="translate(38,45)"/>
<path d="M0 0 C2.31 0 4.62 0 7 0 C7 16.17 7 32.34 7 49 C5.02 49 3.04 49 1 49 C1 49.99 1 50.98 1 52 C-1.64 52 -4.28 52 -7 52 C-7 53.32 -7 54.64 -7 56 C-8.98 56 -10.96 56 -13 56 C-13 56.99 -13 57.98 -13 59 C-15.64 59 -18.28 59 -21 59 C-21 60.32 -21 61.64 -21 63 C-22.98 63 -24.96 63 -27 63 C-27 63.99 -27 64.98 -27 66 C-29.31 66 -31.62 66 -34 66 C-34 66.99 -34 67.98 -34 69 C-36.31 69 -38.62 69 -41 69 C-41 53.16 -41 37.32 -41 21 C-38.69 21 -36.38 21 -34 21 C-34 20.01 -34 19.02 -34 18 C-31.69 18 -29.38 18 -27 18 C-27 16.68 -27 15.36 -27 14 C-25.02 14 -23.04 14 -21 14 C-21 12.68 -21 11.36 -21 10 C-18.69 10 -16.38 10 -14 10 C-13.67 9.01 -13.34 8.02 -13 7 C-11.02 7 -9.04 7 -7 7 C-7 6.01 -7 5.02 -7 4 C-4.69 4 -2.38 4 0 4 C0 2.68 0 1.36 0 0 Z " fill="#52E0EC" transform="translate(148,51)"/>
<path d="M0 0 C2.31 0 4.62 0 7 0 C7 21.78 7 43.56 7 66 C5.68 66 4.36 66 3 66 C3 66.99 3 67.98 3 69 C0.69 69 -1.62 69 -4 69 C-4 70.32 -4 71.64 -4 73 C-6.31 73 -8.62 73 -11 73 C-11 73.99 -11 74.98 -11 76 C-13.31 76 -15.62 76 -18 76 C-18 76.99 -18 77.98 -18 79 C-20.97 79.495 -20.97 79.495 -24 80 C-24.495 81.485 -24.495 81.485 -25 83 C-27.31 83 -29.62 83 -32 83 C-32 84.32 -32 85.64 -32 87 C-33.98 87 -35.96 87 -38 87 C-38 87.99 -38 88.98 -38 90 C-40.31 90 -42.62 90 -45 90 C-45 90.99 -45 91.98 -45 93 C-47.31 93 -49.62 93 -52 93 C-52 94.32 -52 95.64 -52 97 C-54.31 97 -56.62 97 -59 97 C-59 98.32 -59 99.64 -59 101 C-59.99 101 -60.98 101 -62 101 C-62 78.23 -62 55.46 -62 32 C-60.02 32 -58.04 32 -56 32 C-56 30.68 -56 29.36 -56 28 C-53.36 28 -50.72 28 -48 28 C-48 26.68 -48 25.36 -48 24 C-46.02 24 -44.04 24 -42 24 C-42 23.34 -42 22.68 -42 22 C-39.36 22 -36.72 22 -34 22 C-34 20.68 -34 19.36 -34 18 C-32.02 18 -30.04 18 -28 18 C-28 16.68 -28 15.36 -28 14 C-25.69 14 -23.38 14 -21 14 C-21 13.01 -21 12.02 -21 11 C-18.69 11 -16.38 11 -14 11 C-14 10.01 -14 9.02 -14 8 C-11.69 8 -9.38 8 -7 8 C-7 6.68 -7 5.36 -7 4 C-5.02 4 -3.04 4 -1 4 C-0.67 2.68 -0.34 1.36 0 0 Z M-11 14 C-11 15.32 -11 16.64 -11 18 C-13.31 18 -15.62 18 -18 18 C-18 18.99 -18 19.98 -18 21 C-19.98 21 -21.96 21 -24 21 C-24.33 21.99 -24.66 22.98 -25 24 C-27.31 24 -29.62 24 -32 24 C-32 25.32 -32 26.64 -32 28 C-33.98 28 -35.96 28 -38 28 C-38 29.32 -38 30.64 -38 32 C-40.31 32 -42.62 32 -45 32 C-45 32.99 -45 33.98 -45 35 C-47.31 35 -49.62 35 -52 35 C-52 50.84 -52 66.68 -52 83 C-49.69 83 -47.38 83 -45 83 C-45 82.01 -45 81.02 -45 80 C-42.69 80 -40.38 80 -38 80 C-38 79.01 -38 78.02 -38 77 C-36.02 77 -34.04 77 -32 77 C-32 75.68 -32 74.36 -32 73 C-29.36 73 -26.72 73 -24 73 C-24 72.01 -24 71.02 -24 70 C-22.02 70 -20.04 70 -18 70 C-18 68.68 -18 67.36 -18 66 C-15.36 66 -12.72 66 -10 66 C-10 65.01 -10 64.02 -10 63 C-8.02 63 -6.04 63 -4 63 C-4 46.83 -4 30.66 -4 14 C-6.31 14 -8.62 14 -11 14 Z " fill="#C7BDBC" transform="translate(159,37)"/>
<path d="M0 0 C1.32 0 2.64 0 4 0 C4 0.99 4 1.98 4 3 C5.32 3 6.64 3 8 3 C8 3.99 8 4.98 8 6 C11.3 6 14.6 6 18 6 C18 7.32 18 8.64 18 10 C22.29 10 26.58 10 31 10 C31 11.32 31 12.64 31 14 C33.31 14 35.62 14 38 14 C38 30.83 38 47.66 38 65 C37.01 65 36.02 65 35 65 C35 65.99 35 66.98 35 68 C32.69 68 30.38 68 28 68 C28 67.01 28 66.02 28 65 C26.02 65 24.04 65 22 65 C21.505 63.515 21.505 63.515 21 62 C17.535 61.505 17.535 61.505 14 61 C14 60.01 14 59.02 14 58 C12.02 58 10.04 58 8 58 C8 52.39 8 46.78 8 41 C8.66 41 9.32 41 10 41 C10 40.01 10 39.02 10 38 C9.01 38 8.02 38 7 38 C7 36.68 7 35.36 7 34 C4.69 34 2.38 34 0 34 C0 32.68 0 31.36 0 30 C-1.32 30 -2.64 30 -4 30 C-4 20.76 -4 11.52 -4 2 C-2.68 2 -1.36 2 0 2 C0 1.34 0 0.68 0 0 Z " fill="#9E8E91" transform="translate(38,45)"/>
<path d="M0 0 C1.32 0 2.64 0 4 0 C4 0.99 4 1.98 4 3 C3.01 3 2.02 3 1 3 C1 4.32 1 5.64 1 7 C3.31 7 5.62 7 8 7 C8 7.99 8 8.98 8 10 C9.98 10 11.96 10 14 10 C14 11.32 14 12.64 14 14 C16.64 14 19.28 14 22 14 C22 14.99 22 15.98 22 17 C23.98 17 25.96 17 28 17 C28 17.99 28 18.98 28 20 C30.64 20 33.28 20 36 20 C36 21.32 36 22.64 36 24 C37.98 24 39.96 24 42 24 C42 25.32 42 26.64 42 28 C44.31 28 46.62 28 49 28 C49 28.99 49 29.98 49 31 C50.98 31 52.96 31 55 31 C55 31.99 55 32.98 55 34 C56.65 34 58.3 34 60 34 C60 41.59 60 49.18 60 57 C60.99 57 61.98 57 63 57 C63 56.34 63 55.68 63 55 C64.98 55 66.96 55 69 55 C69 55.99 69 56.98 69 58 C67.02 58 65.04 58 63 58 C63 59.32 63 60.64 63 62 C60.69 62 58.38 62 56 62 C56 60.68 56 59.36 56 58 C53.69 58 51.38 58 49 58 C49 57.01 49 56.02 49 55 C46.69 55 44.38 55 42 55 C42 54.01 42 53.02 42 52 C39.69 52 37.38 52 35 52 C35 50.68 35 49.36 35 48 C32.69 48 30.38 48 28 48 C28 46.68 28 45.36 28 44 C25.69 44 23.38 44 21 44 C21 43.34 21 42.68 21 42 C18.69 42 16.38 42 14 42 C14 40.68 14 39.36 14 38 C12.02 38 10.04 38 8 38 C8 36.68 8 35.36 8 34 C5.36 34 2.72 34 0 34 C0 33.01 0 32.02 0 31 C-0.66 31 -1.32 31 -2 31 C-2 21.76 -2 12.52 -2 3 C-1.34 3 -0.68 3 0 3 C0 2.01 0 1.02 0 0 Z " fill="#A19194" transform="translate(34,124)"/>
<path d="M0 0 C4.62 0 9.24 0 14 0 C14 1.32 14 2.64 14 4 C14.99 4 15.98 4 17 4 C17 4.99 17 5.98 17 7 C14.69 7 12.38 7 10 7 C10 7.99 10 8.98 10 10 C7.69 10 5.38 10 3 10 C3 10.99 3 11.98 3 13 C0.69 13 -1.62 13 -4 13 C-4 14.32 -4 15.64 -4 17 C-6.31 17 -8.62 17 -11 17 C-11 18.32 -11 19.64 -11 21 C-12.98 21 -14.96 21 -17 21 C-17 21.99 -17 22.98 -17 24 C-19.64 24 -22.28 24 -25 24 C-25 24.99 -25 25.98 -25 27 C-26.98 27 -28.96 27 -31 27 C-31 28.32 -31 29.64 -31 31 C-33.31 31 -35.62 31 -38 31 C-38 32.32 -38 33.64 -38 35 C-40.31 35 -42.62 35 -45 35 C-45 35.66 -45 36.32 -45 37 C-47.31 37 -49.62 37 -52 37 C-52 38.32 -52 39.64 -52 41 C-55.63 41 -59.26 41 -63 41 C-63 40.01 -63 39.02 -63 38 C-64.98 38 -66.96 38 -69 38 C-69 37.01 -69 36.02 -69 35 C-71.31 35 -73.62 35 -76 35 C-76 33.68 -76 32.36 -76 31 C-77.98 31 -79.96 31 -82 31 C-82 29.68 -82 28.36 -82 27 C-84.64 27 -87.28 27 -90 27 C-90 26.01 -90 25.02 -90 24 C-91.98 24 -93.96 24 -96 24 C-96 23.01 -96 22.02 -96 21 C-98.64 21 -101.28 21 -104 21 C-104 19.68 -104 18.36 -104 17 C-105.98 17 -107.96 17 -110 17 C-110 16.01 -110 15.02 -110 14 C-112.31 14 -114.62 14 -117 14 C-117 12.68 -117 11.36 -117 10 C-116.01 10 -115.02 10 -114 10 C-114 9.01 -114 8.02 -114 7 C-111.36 7 -108.72 7 -106 7 C-106 6.01 -106 5.02 -106 4 C-103.03 4 -100.06 4 -97 4 C-97 4.99 -97 5.98 -97 7 C-94.69 7 -92.38 7 -90 7 C-90 7.99 -90 8.98 -90 10 C-87.69 10 -85.38 10 -83 10 C-83 11.32 -83 12.64 -83 14 C-81.68 14 -80.36 14 -79 14 C-79 14.99 -79 15.98 -79 17 C-78.01 17 -77.02 17 -76 17 C-76 18.32 -76 19.64 -76 21 C-73.69 21 -71.38 21 -69 21 C-69 21.99 -69 22.98 -69 24 C-67.02 24 -65.04 24 -63 24 C-63 24.99 -63 25.98 -63 27 C-58.38 27 -53.76 27 -49 27 C-49 26.01 -49 25.02 -49 24 C-46.36 24 -43.72 24 -41 24 C-41 23.01 -41 22.02 -41 21 C-39.02 21 -37.04 21 -35 21 C-35 19.68 -35 18.36 -35 17 C-32.69 17 -30.38 17 -28 17 C-28 15.68 -28 14.36 -28 13 C-25.69 13 -23.38 13 -21 13 C-21 12.01 -21 11.02 -21 10 C-18.69 10 -16.38 10 -14 10 C-14 9.01 -14 8.02 -14 7 C-11.69 7 -9.38 7 -7 7 C-7 5.68 -7 4.36 -7 3 C-4.69 3 -2.38 3 0 3 C0 2.01 0 1.02 0 0 Z " fill="#E7DBDB" transform="translate(152,117)"/>
<path d="M0 0 C2.97 0 5.94 0 9 0 C9 0.99 9 1.98 9 3 C12.3 3 15.6 3 19 3 C19 3.99 19 4.98 19 6 C21.64 6 24.28 6 27 6 C27 6.99 27 7.98 27 9 C24.69 9.33 22.38 9.66 20 10 C19.67 10.99 19.34 11.98 19 13 C17.02 13 15.04 13 13 13 C13 14.32 13 15.64 13 17 C10.69 17 8.38 17 6 17 C6 17.99 6 18.98 6 20 C3.69 20 1.38 20 -1 20 C-1 20.99 -1 21.98 -1 23 C-3.31 23 -5.62 23 -8 23 C-8 24.32 -8 25.64 -8 27 C-9.98 27 -11.96 27 -14 27 C-14 28.32 -14 29.64 -14 31 C-16.64 31 -19.28 31 -22 31 C-22 31.66 -22 32.32 -22 33 C-23.98 33 -25.96 33 -28 33 C-28 34.32 -28 35.64 -28 37 C-30.64 37 -33.28 37 -36 37 C-36 38.32 -36 39.64 -36 41 C-39.3 41 -42.6 41 -46 41 C-46 39.68 -46 38.36 -46 37 C-47.98 37 -49.96 37 -52 37 C-52 35.68 -52 34.36 -52 33 C-54.31 33 -56.62 33 -59 33 C-59 32.34 -59 31.68 -59 31 C-58.01 31 -57.02 31 -56 31 C-56 29.68 -56 28.36 -56 27 C-53.69 27 -51.38 27 -49 27 C-49 26.01 -49 25.02 -49 24 C-46.69 24 -44.38 24 -42 24 C-42 22.68 -42 21.36 -42 20 C-39.69 20 -37.38 20 -35 20 C-35 19.01 -35 18.02 -35 17 C-32.69 17 -30.38 17 -28 17 C-28 15.68 -28 14.36 -28 13 C-26.02 13 -24.04 13 -22 13 C-22 12.01 -22 11.02 -22 10 C-19.36 10 -16.72 10 -14 10 C-14 8.68 -14 7.36 -14 6 C-12.02 6 -10.04 6 -8 6 C-8 5.01 -8 4.02 -8 3 C-5.36 3 -2.72 3 0 3 C0 2.01 0 1.02 0 0 Z " fill="#E8DCDC" transform="translate(139,28)"/>
<path d="M0 0 C6.27 0 12.54 0 19 0 C19 11.22 19 22.44 19 34 C12.07 34 5.14 34 -2 34 C-2 31.69 -2 29.38 -2 27 C-4.31 27 -6.62 27 -9 27 C-9 20.73 -9 14.46 -9 8 C-6.03 8 -3.06 8 0 8 C0 5.36 0 2.72 0 0 Z " fill="#010100" transform="translate(181,166)"/>
<path d="M0 0 C10.89 0 21.78 0 33 0 C33 7.26 33 14.52 33 22 C25.41 22 17.82 22 10 22 C10 19.36 10 16.72 10 14 C6.7 14 3.4 14 0 14 C0 9.38 0 4.76 0 0 Z " fill="#040400" transform="translate(167,0)"/>
<path d="M0 0 C1.32 0 2.64 0 4 0 C4 1.32 4 2.64 4 4 C3.01 4 2.02 4 1 4 C1 27.43 1 50.86 1 75 C3.31 75 5.62 75 8 75 C8 76.32 8 77.64 8 79 C9.98 79 11.96 79 14 79 C14 80.32 14 81.64 14 83 C11.69 83 9.38 83 7 83 C7 81.68 7 80.36 7 79 C4.69 79 2.38 79 0 79 C0 78.01 0 77.02 0 76 C-0.99 76 -1.98 76 -3 76 C-3 72.37 -3 68.74 -3 65 C-3.99 65 -4.98 65 -6 65 C-6 64.01 -6 63.02 -6 62 C-8.64 62 -11.28 62 -14 62 C-14 61.01 -14 60.02 -14 59 C-15.65 59 -17.3 59 -19 59 C-19 59.99 -19 60.98 -19 62 C-21.64 62 -24.28 62 -27 62 C-27 60.68 -27 59.36 -27 58 C-24.69 58 -22.38 58 -20 58 C-20 57.01 -20 56.02 -20 55 C-22.31 55 -24.62 55 -27 55 C-27 54.01 -27 53.02 -27 52 C-29.31 52 -31.62 52 -34 52 C-34 50.68 -34 49.36 -34 48 C-34.99 48 -35.98 48 -37 48 C-37 40.08 -37 32.16 -37 24 C-36.01 24 -35.02 24 -34 24 C-34 25.32 -34 26.64 -34 28 C-33.01 28 -32.02 28 -31 28 C-31 28.99 -31 29.98 -31 31 C-31.66 31 -32.32 31 -33 31 C-33 36.61 -33 42.22 -33 48 C-31.02 48 -29.04 48 -27 48 C-27 48.99 -27 49.98 -27 51 C-24.69 51 -22.38 51 -20 51 C-19.67 52.32 -19.34 53.64 -19 55 C-17.02 55 -15.04 55 -13 55 C-13 55.99 -13 56.98 -13 58 C-10.69 58 -8.38 58 -6 58 C-6 57.01 -6 56.02 -6 55 C-5.01 55 -4.02 55 -3 55 C-3 37.84 -3 20.68 -3 3 C-2.01 3 -1.02 3 0 3 C0 2.01 0 1.02 0 0 Z " fill="#010101" transform="translate(79,55)"/>
<path d="M0 0 C1.32 0 2.64 0 4 0 C4 1.32 4 2.64 4 4 C2.68 4 1.36 4 0 4 C0 4.99 0 5.98 0 7 C-0.99 7 -1.98 7 -3 7 C-3 7.99 -3 8.98 -3 10 C-0.69 10 1.62 10 4 10 C4 11.32 4 12.64 4 14 C-0.62 14 -5.24 14 -10 14 C-10 14.99 -10 15.98 -10 17 C-12.31 17 -14.62 17 -17 17 C-17 18.32 -17 19.64 -17 21 C-19.31 21 -21.62 21 -24 21 C-24 21.99 -24 22.98 -24 24 C-26.31 24 -28.62 24 -31 24 C-31 24.99 -31 25.98 -31 27 C-33.31 27 -35.62 27 -38 27 C-38 28.32 -38 29.64 -38 31 C-40.31 31 -42.62 31 -45 31 C-45 32.32 -45 33.64 -45 35 C-46.98 35 -48.96 35 -51 35 C-51 34.01 -51 33.02 -51 32 C-52.32 31.67 -53.64 31.34 -55 31 C-55 29.68 -55 28.36 -55 27 C-52.69 27 -50.38 27 -48 27 C-48 26.01 -48 25.02 -48 24 C-45.69 24 -43.38 24 -41 24 C-41 23.01 -41 22.02 -41 21 C-39.02 21 -37.04 21 -35 21 C-35 19.68 -35 18.36 -35 17 C-32.69 17 -30.38 17 -28 17 C-27.67 15.68 -27.34 14.36 -27 13 C-25.02 13 -23.04 13 -21 13 C-21 12.01 -21 11.02 -21 10 C-18.69 10 -16.38 10 -14 10 C-14 9.01 -14 8.02 -14 7 C-11.69 7 -9.38 7 -7 7 C-7 5.68 -7 4.36 -7 3 C-4.69 3 -2.38 3 0 3 C0 2.01 0 1.02 0 0 Z " fill="#9B8C8E" transform="translate(162,103)"/>
<path d="M0 0 C8.58 0 17.16 0 26 0 C26 0.99 26 1.98 26 3 C28.97 3 31.94 3 35 3 C35.495 4.98 35.495 4.98 36 7 C39.3 7 42.6 7 46 7 C46 8.32 46 9.64 46 11 C48.31 11 50.62 11 53 11 C53 11.99 53 12.98 53 14 C50.36 14 47.72 14 45 14 C45 13.01 45 12.02 45 11 C41.7 11 38.4 11 35 11 C35 10.01 35 9.02 35 8 C32.03 8 29.06 8 26 8 C26 8.99 26 9.98 26 11 C23.36 11 20.72 11 18 11 C18 9.68 18 8.36 18 7 C20.31 7 22.62 7 25 7 C25 6.01 25 5.02 25 4 C17.08 4 9.16 4 1 4 C1 4.99 1 5.98 1 7 C-10.22 7 -21.44 7 -33 7 C-33 8.32 -33 9.64 -33 11 C-36.3 11 -39.6 11 -43 11 C-43 11.99 -43 12.98 -43 14 C-45.64 14 -48.28 14 -51 14 C-51 13.01 -51 12.02 -51 11 C-48.69 11 -46.38 11 -44 11 C-44 9.68 -44 8.36 -44 7 C-40.7 7 -37.4 7 -34 7 C-33.67 5.68 -33.34 4.36 -33 3 C-22.11 3 -11.22 3 0 3 C0 2.01 0 1.02 0 0 Z " fill="#60591F" transform="translate(113,20)"/>
<path d="M0 0 C2.97 0 5.94 0 9 0 C9 16.83 9 33.66 9 51 C6.03 51 3.06 51 0 51 C0 34.17 0 17.34 0 0 Z " fill="#121002" transform="translate(5,76)"/>
<path d="M0 0 C1.65 0 3.3 0 5 0 C5 0.99 5 1.98 5 3 C7.64 3 10.28 3 13 3 C13 3.99 13 4.98 13 6 C13.99 6 14.98 6 16 6 C16 9.63 16 13.26 16 17 C16.99 17 17.98 17 19 17 C19.495 18.485 19.495 18.485 20 20 C20.99 20.66 21.98 21.32 23 22 C23 22.66 23 23.32 23 24 C20.69 24 18.38 24 16 24 C16 22.68 16 21.36 16 20 C15.01 20 14.02 20 13 20 C13 19.01 13 18.02 13 17 C11.68 17 10.36 17 9 17 C9 15.68 9 14.36 9 13 C6.69 13 4.38 13 2 13 C2 12.01 2 11.02 2 10 C-0.31 10 -2.62 10 -5 10 C-5 9.01 -5 8.02 -5 7 C-7.97 7 -10.94 7 -14 7 C-14 7.99 -14 8.98 -14 10 C-16.64 10 -19.28 10 -22 10 C-22 8.68 -22 7.36 -22 6 C-19.69 6 -17.38 6 -15 6 C-15 5.01 -15 4.02 -15 3 C-10.05 3 -5.1 3 0 3 C0 2.01 0 1.02 0 0 Z " fill="#A09190" transform="translate(60,114)"/>
<path d="M0 0 C17.82 0 35.64 0 54 0 C54 1.98 54 3.96 54 6 C36.18 6 18.36 6 0 6 C0 4.02 0 2.04 0 0 Z " fill="#090801" transform="translate(77,194)"/>
<path d="M0 0 C2.97 0 5.94 0 9 0 C9 5.28 9 10.56 9 16 C6.03 16 3.06 16 0 16 C0 21.94 0 27.88 0 34 C-2.97 34 -5.94 34 -9 34 C-9 27.73 -9 21.46 -9 15 C-6.03 15 -3.06 15 0 15 C0 10.05 0 5.1 0 0 Z " fill="#201E06" transform="translate(33,0)"/>
<path d="M0 0 C2.97 0 5.94 0 9 0 C9 11.22 9 22.44 9 34 C6.03 34 3.06 34 0 34 C0 22.78 0 11.56 0 0 Z " fill="#0A0801" transform="translate(184,38)"/>
<path d="M0 0 C2.31 0 4.62 0 7 0 C7 1.32 7 2.64 7 4 C4.69 4 2.38 4 0 4 C0 4.66 0 5.32 0 6 C-0.99 6 -1.98 6 -3 6 C-3 19.53 -3 33.06 -3 47 C-2.34 47 -1.68 47 -1 47 C-1 46.01 -1 45.02 -1 44 C1.64 44 4.28 44 7 44 C7 43.01 7 42.02 7 41 C8.98 41 10.96 41 13 41 C13 42.32 13 43.64 13 45 C11.02 45 9.04 45 7 45 C7 45.99 7 46.98 7 48 C4.69 48 2.38 48 0 48 C0 48.99 0 49.98 0 51 C-2.31 51 -4.62 51 -7 51 C-7 35.16 -7 19.32 -7 3 C-4.69 3 -2.38 3 0 3 C0 2.01 0 1.02 0 0 Z " fill="#010202" transform="translate(114,69)"/>
<path d="M0 0 C2.31 0 4.62 0 7 0 C7 16.17 7 32.34 7 49 C5.02 49 3.04 49 1 49 C1 49.99 1 50.98 1 52 C-1.64 52 -4.28 52 -7 52 C-7 51.01 -7 50.02 -7 49 C-4.69 49 -2.38 49 0 49 C0 47.68 0 46.36 0 45 C1.32 45 2.64 45 4 45 C4 31.47 4 17.94 4 4 C3.01 4 2.02 4 1 4 C1 5.32 1 6.64 1 8 C-1.64 8 -4.28 8 -7 8 C-7 8.99 -7 9.98 -7 11 C-8.98 11 -10.96 11 -13 11 C-13 11.99 -13 12.98 -13 14 C-15.64 14 -18.28 14 -21 14 C-21 12.68 -21 11.36 -21 10 C-18.69 10 -16.38 10 -14 10 C-13.67 9.01 -13.34 8.02 -13 7 C-11.02 7 -9.04 7 -7 7 C-7 6.01 -7 5.02 -7 4 C-4.69 4 -2.38 4 0 4 C0 2.68 0 1.36 0 0 Z " fill="#3B4243" transform="translate(148,51)"/>
<path d="M0 0 C0.99 0 1.98 0 3 0 C3 1.32 3 2.64 3 4 C3.99 4 4.98 4 6 4 C6 4.99 6 5.98 6 7 C5.34 7 4.68 7 4 7 C4 12.61 4 18.22 4 24 C5.98 24 7.96 24 10 24 C10 24.99 10 25.98 10 27 C12.31 27 14.62 27 17 27 C17.33 28.32 17.66 29.64 18 31 C19.98 31 21.96 31 24 31 C24 31.99 24 32.98 24 34 C27.3 34 30.6 34 34 34 C34 35.32 34 36.64 34 38 C30.37 38 26.74 38 23 38 C23 37.01 23 36.02 23 35 C21.35 35 19.7 35 18 35 C18 35.99 18 36.98 18 38 C15.36 38 12.72 38 10 38 C10 36.68 10 35.36 10 34 C12.31 34 14.62 34 17 34 C17 33.01 17 32.02 17 31 C14.69 31 12.38 31 10 31 C10 30.01 10 29.02 10 28 C7.69 28 5.38 28 3 28 C3 26.68 3 25.36 3 24 C2.01 24 1.02 24 0 24 C0 16.08 0 8.16 0 0 Z " fill="#413C3B" transform="translate(42,79)"/>
<path d="M0 0 C0.66 0 1.32 0 2 0 C2 0.99 2 1.98 2 3 C3.32 3 4.64 3 6 3 C6 4.32 6 5.64 6 7 C6.99 7 7.98 7 9 7 C9.33 7.99 9.66 8.98 10 10 C10.99 10.33 11.98 10.66 13 11 C13 11.99 13 12.98 13 14 C13.99 14 14.98 14 16 14 C16 14.99 16 15.98 16 17 C16.99 17 17.98 17 19 17 C19 18.32 19 19.64 19 21 C20.32 21 21.64 21 23 21 C23 21.99 23 22.98 23 24 C24.32 24 25.64 24 27 24 C27 24.99 27 25.98 27 27 C24.69 27 22.38 27 20 27 C20 26.01 20 25.02 20 24 C18.02 24 16.04 24 14 24 C13.67 23.01 13.34 22.02 13 21 C10.69 20.67 8.38 20.34 6 20 C6 19.01 6 18.02 6 17 C4.02 17 2.04 17 0 17 C0 11.39 0 5.78 0 0 Z " fill="#A09093" transform="translate(46,86)"/>
<path d="M0 0 C6.6 0 13.2 0 20 0 C20 0.99 20 1.98 20 3 C18.68 3 17.36 3 16 3 C16 6.3 16 9.6 16 13 C10.72 13 5.44 13 0 13 C0 8.71 0 4.42 0 0 Z " fill="#141303" transform="translate(0,152)"/>
<path d="M0 0 C1.32 0 2.64 0 4 0 C4 1.32 4 2.64 4 4 C2.68 4 1.36 4 0 4 C0 4.99 0 5.98 0 7 C-0.99 7 -1.98 7 -3 7 C-3 7.99 -3 8.98 -3 10 C-0.69 10 1.62 10 4 10 C4 10.99 4 11.98 4 13 C1.36 13 -1.28 13 -4 13 C-4 12.34 -4 11.68 -4 11 C-6.97 11 -9.94 11 -13 11 C-13 11.99 -13 12.98 -13 14 C-15.64 14 -18.28 14 -21 14 C-21 15.32 -21 16.64 -21 18 C-22.98 18 -24.96 18 -27 18 C-27 18.99 -27 19.98 -27 21 C-29.64 21 -32.28 21 -35 21 C-35 19.68 -35 18.36 -35 17 C-32.69 17 -30.38 17 -28 17 C-27.67 15.68 -27.34 14.36 -27 13 C-25.02 13 -23.04 13 -21 13 C-21 12.01 -21 11.02 -21 10 C-18.69 10 -16.38 10 -14 10 C-14 9.01 -14 8.02 -14 7 C-11.69 7 -9.38 7 -7 7 C-7 5.68 -7 4.36 -7 3 C-4.69 3 -2.38 3 0 3 C0 2.01 0 1.02 0 0 Z " fill="#484339" transform="translate(162,103)"/>
<path d="M0 0 C0.99 0 1.98 0 3 0 C3 22.77 3 45.54 3 69 C2.01 69 1.02 69 0 69 C0 46.23 0 23.46 0 0 Z " fill="#282508" transform="translate(166,34)"/>
<path d="M0 0 C11.55 0 23.1 0 35 0 C35 0.99 35 1.98 35 3 C23.78 3 12.56 3 1 3 C1 4.32 1 5.64 1 7 C-2.3 7 -5.6 7 -9 7 C-9 7.99 -9 8.98 -9 10 C-11.64 10 -14.28 10 -17 10 C-17 9.01 -17 8.02 -17 7 C-14.69 7 -12.38 7 -10 7 C-10 5.68 -10 4.36 -10 3 C-6.7 3 -3.4 3 0 3 C0 2.01 0 1.02 0 0 Z " fill="#010101" transform="translate(79,24)"/>
<path d="M0 0 C1.32 0 2.64 0 4 0 C4 0.99 4 1.98 4 3 C3.01 3 2.02 3 1 3 C1 11.91 1 20.82 1 30 C1.99 30 2.98 30 4 30 C4 31.32 4 32.64 4 34 C2.68 34 1.36 34 0 34 C0 32.68 0 31.36 0 30 C-1.32 30 -2.64 30 -4 30 C-4 20.76 -4 11.52 -4 2 C-2.68 2 -1.36 2 0 2 C0 1.34 0 0.68 0 0 Z " fill="#645A56" transform="translate(38,45)"/>
<path d="M0 0 C1.32 0 2.64 0 4 0 C4 1.32 4 2.64 4 4 C3.01 4 2.02 4 1 4 C1 27.43 1 50.86 1 75 C3.31 75 5.62 75 8 75 C8 76.32 8 77.64 8 79 C9.98 79 11.96 79 14 79 C14 80.32 14 81.64 14 83 C11.69 83 9.38 83 7 83 C7 81.68 7 80.36 7 79 C4.69 79 2.38 79 0 79 C0 78.01 0 77.02 0 76 C-0.99 75.67 -1.98 75.34 -3 75 C-2.01 75 -1.02 75 0 75 C0 51.57 0 28.14 0 4 C-0.99 3.67 -1.98 3.34 -3 3 C-2.01 3 -1.02 3 0 3 C0 2.01 0 1.02 0 0 Z " fill="#50494A" transform="translate(79,55)"/>
<path d="M0 0 C1.65 0 3.3 0 5 0 C5 15.84 5 31.68 5 48 C3.35 48 1.7 48 0 48 C0 48.99 0 49.98 0 51 C-2.64 51 -5.28 51 -8 51 C-8 50.01 -8 49.02 -8 48 C-5.69 48 -3.38 48 -1 48 C-1 46.68 -1 45.36 -1 44 C0.32 44 1.64 44 3 44 C3 30.47 3 16.94 3 3 C2.01 3 1.02 3 0 3 C0 2.01 0 1.02 0 0 Z " fill="#060F10" transform="translate(149,52)"/>
<path d="M0 0 C3.63 0 7.26 0 11 0 C11 0.99 11 1.98 11 3 C14.3 3 17.6 3 21 3 C21 4.32 21 5.64 21 7 C23.31 7 25.62 7 28 7 C28 7.99 28 8.98 28 10 C25.36 10 22.72 10 20 10 C20 9.01 20 8.02 20 7 C16.7 7 13.4 7 10 7 C10 6.01 10 5.02 10 4 C7.03 4 4.06 4 1 4 C1 4.99 1 5.98 1 7 C-1.64 7 -4.28 7 -7 7 C-7 5.68 -7 4.36 -7 3 C-4.69 3 -2.38 3 0 3 C0 2.01 0 1.02 0 0 Z " fill="#7F7755" transform="translate(138,24)"/>
<path d="M0 0 C2.64 0 5.28 0 8 0 C8 5.61 8 11.22 8 17 C5.36 17 2.72 17 0 17 C0 11.39 0 5.78 0 0 Z " fill="#040300" transform="translate(25,16)"/>
<path d="M0 0 C2.97 0 5.94 0 9 0 C9 4.95 9 9.9 9 15 C6.03 15 3.06 15 0 15 C0 10.05 0 5.1 0 0 Z " fill="#141303" transform="translate(32,185)"/>
<path d="M0 0 C8.91 0 17.82 0 27 0 C27 1.65 27 3.3 27 5 C18.09 5 9.18 5 0 5 C0 3.35 0 1.7 0 0 Z " fill="#0F0E02" transform="translate(113,0)"/>
<path d="M0 0 C1.32 0 2.64 0 4 0 C4 0.99 4 1.98 4 3 C3.01 3 2.02 3 1 3 C1 11.91 1 20.82 1 30 C3.31 30 5.62 30 8 30 C8 31.32 8 32.64 8 34 C5.36 34 2.72 34 0 34 C0 33.01 0 32.02 0 31 C-0.66 31 -1.32 31 -2 31 C-2 21.76 -2 12.52 -2 3 C-1.34 3 -0.68 3 0 3 C0 2.01 0 1.02 0 0 Z " fill="#2B281F" transform="translate(34,124)"/>
<path d="M0 0 C2.31 0 4.62 0 7 0 C7 0.99 7 1.98 7 3 C7.99 3 8.98 3 10 3 C10 10.92 10 18.84 10 27 C8.68 27 7.36 27 6 27 C6 19.41 6 11.82 6 4 C4.02 4 2.04 4 0 4 C0 2.68 0 1.36 0 0 Z " fill="#080700" transform="translate(166,117)"/>
<path d="M0 0 C2.97 0 5.94 0 9 0 C9 0.66 9 1.32 9 2 C11.64 2 14.28 2 17 2 C17 2.33 17 2.66 17 3 C12.38 3 7.76 3 3 3 C3 3.99 3 4.98 3 6 C0.69 6 -1.62 6 -4 6 C-4 7.32 -4 8.64 -4 10 C-6.31 10 -8.62 10 -11 10 C-11 10.66 -11 11.32 -11 12 C-17.625 12.125 -17.625 12.125 -21 11 C-21.33 11.66 -21.66 12.32 -22 13 C-22 12.01 -22 11.02 -22 10 C-19.36 10 -16.72 10 -14 10 C-14 9.01 -14 8.02 -14 7 C-12.02 7 -10.04 7 -8 7 C-8 5.68 -8 4.36 -8 3 C-5.36 3 -2.72 3 0 3 C0 2.01 0 1.02 0 0 Z " fill="#9D8E91" transform="translate(149,114)"/>
<path d="M0 0 C2.97 0 5.94 0 9 0 C9 3.96 9 7.92 9 12 C6.03 12 3.06 12 0 12 C0 8.04 0 4.08 0 0 Z " fill="#030300" transform="translate(191,95)"/>
<path d="M0 0 C1.98 0 3.96 0 6 0 C6 5.94 6 11.88 6 18 C4.02 18 2.04 18 0 18 C0 12.06 0 6.12 0 0 Z " fill="#0A0902" transform="translate(14,14)"/>
<path d="M0 0 C0.33 0 0.66 0 1 0 C1 13.53 1 27.06 1 41 C1.66 41 2.32 41 3 41 C3 40.01 3 39.02 3 38 C5.64 38 8.28 38 11 38 C11 37.01 11 36.02 11 35 C12.98 35 14.96 35 17 35 C17 36.32 17 37.64 17 39 C15.02 39 13.04 39 11 39 C11 39.99 11 40.98 11 42 C7.37 42 3.74 42 0 42 C0 28.14 0 14.28 0 0 Z " fill="#254447" transform="translate(110,75)"/>
<path d="M0 0 C2.64 0 5.28 0 8 0 C8 0.99 8 1.98 8 3 C9.98 3 11.96 3 14 3 C14 4.32 14 5.64 14 7 C16.31 7 18.62 7 21 7 C21 8.32 21 9.64 21 11 C18.69 11 16.38 11 14 11 C14 10.01 14 9.02 14 8 C11.69 8 9.38 8 7 8 C7 6.68 7 5.36 7 4 C4.69 4 2.38 4 0 4 C0 2.68 0 1.36 0 0 Z " fill="#756B49" transform="translate(62,168)"/>
<path d="M0 0 C4.62 0 9.24 0 14 0 C14 1.32 14 2.64 14 4 C16.97 4 19.94 4 23 4 C23 4.99 23 5.98 23 7 C19.52674819 8.1577506 16.63932552 8.06866652 13 8 C13 6.68 13 5.36 13 4 C8.71 4 4.42 4 0 4 C0 2.68 0 1.36 0 0 Z " fill="#C9BFBE" transform="translate(56,51)"/>
<path d="M0 0 C1.32 0 2.64 0 4 0 C4 2.31 4 4.62 4 7 C5.98 7 7.96 7 10 7 C10 6.01 10 5.02 10 4 C11.32 4 12.64 4 14 4 C14 5.32 14 6.64 14 8 C12.68 8 11.36 8 10 8 C10 8.99 10 9.98 10 11 C7.69 11 5.38 11 3 11 C3 10.01 3 9.02 3 8 C2.01 8 1.02 8 0 8 C0 8.99 0 9.98 0 11 C-1.32 11 -2.64 11 -4 11 C-4 9.68 -4 8.36 -4 7 C-2.68 7 -1.36 7 0 7 C0 4.69 0 2.38 0 0 Z " fill="#276CA0" transform="translate(131,89)"/>
<path d="M0 0 C2.64 0 5.28 0 8 0 C8 1.32 8 2.64 8 4 C5.69 4 3.38 4 1 4 C1 4.99 1 5.98 1 7 C-1.31 7 -3.62 7 -6 7 C-6 7.99 -6 8.98 -6 10 C-8.31 10 -10.62 10 -13 10 C-13 8.68 -13 7.36 -13 6 C-10.69 6 -8.38 6 -6 6 C-6 5.01 -6 4.02 -6 3 C-4.02 3 -2.04 3 0 3 C0 2.01 0 1.02 0 0 Z " fill="#5C5630" transform="translate(158,148)"/>
<path d="M0 0 C2.64 0 5.28 0 8 0 C8 1.32 8 2.64 8 4 C5.36 4 2.72 4 0 4 C0 4.99 0 5.98 0 7 C-1.98 7 -3.96 7 -6 7 C-6 7.99 -6 8.98 -6 10 C-8.31 10 -10.62 10 -13 10 C-13 8.68 -13 7.36 -13 6 C-10.69 6 -8.38 6 -6 6 C-6 5.01 -6 4.02 -6 3 C-4.02 3 -2.04 3 0 3 C0 2.01 0 1.02 0 0 Z " fill="#443F3F" transform="translate(127,148)"/>
<path d="M0 0 C1.65 0 3.3 0 5 0 C5 1.98 5 3.96 5 6 C6.98 6 8.96 6 11 6 C11 5.34 11 4.68 11 4 C11.99 4 12.98 4 14 4 C14 4.99 14 5.98 14 7 C13.34 7 12.68 7 12 7 C12 8.32 12 9.64 12 11 C9.36 11 6.72 11 4 11 C4 9.68 4 8.36 4 7 C2.68 7 1.36 7 0 7 C0 4.69 0 2.38 0 0 Z " fill="#43B6D1" transform="translate(113,96)"/>
<path d="M0 0 C2.31 0 4.62 0 7 0 C7 1.32 7 2.64 7 4 C2.71 4 -1.58 4 -6 4 C-6 19.51 -6 35.02 -6 51 C-6.33 51 -6.66 51 -7 51 C-7 35.16 -7 19.32 -7 3 C-4.69 3 -2.38 3 0 3 C0 2.01 0 1.02 0 0 Z " fill="#272F30" transform="translate(114,69)"/>
<path d="M0 0 C2.31 0 4.62 0 7 0 C7 1.32 7 2.64 7 4 C4.69 4 2.38 4 0 4 C0 4.66 0 5.32 0 6 C-1.98 6 -3.96 6 -6 6 C-6 7.32 -6 8.64 -6 10 C-8.64 10 -11.28 10 -14 10 C-14 8.68 -14 7.36 -14 6 C-11.69 6 -9.38 6 -7 6 C-7 5.01 -7 4.02 -7 3 C-4.69 3 -2.38 3 0 3 C0 2.01 0 1.02 0 0 Z " fill="#534E26" transform="translate(131,162)"/>
<path d="M0 0 C0.99 0 1.98 0 3 0 C3 8.91 3 17.82 3 27 C2.01 27 1.02 27 0 27 C0 18.09 0 9.18 0 0 Z " fill="#010101" transform="translate(35,48)"/>
<path d="M0 0 C2.64 0 5.28 0 8 0 C8 1.32 8 2.64 8 4 C5.69 4 3.38 4 1 4 C1 4.99 1 5.98 1 7 C-1.31 7 -3.62 7 -6 7 C-6 7.99 -6 8.98 -6 10 C-8.31 10 -10.62 10 -13 10 C-13 8.68 -13 7.36 -13 6 C-10.69 6 -8.38 6 -6 6 C-6 5.34 -6 4.68 -6 4 C-4.02 4 -2.04 4 0 4 C0 2.68 0 1.36 0 0 Z " fill="#524E4E" transform="translate(103,41)"/>
<path d="M0 0 C0.99 0 1.98 0 3 0 C3 1.32 3 2.64 3 4 C3.99 4 4.98 4 6 4 C6 4.99 6 5.98 6 7 C5.01 7 4.02 7 3 7 C3 12.28 3 17.56 3 23 C2.01 23 1.02 23 0 23 C0 15.41 0 7.82 0 0 Z " fill="#020200" transform="translate(42,79)"/>
<path d="M0 0 C2.31 0 4.62 0 7 0 C7 0.99 7 1.98 7 3 C5.02 3 3.04 3 1 3 C1 4.32 1 5.64 1 7 C-1.64 7 -4.28 7 -7 7 C-7 7.99 -7 8.98 -7 10 C-8.98 10 -10.96 10 -13 10 C-13 8.68 -13 7.36 -13 6 C-11.02 6 -9.04 6 -7 6 C-7 5.01 -7 4.02 -7 3 C-4.69 3 -2.38 3 0 3 C0 2.01 0 1.02 0 0 Z " fill="#7F7878" transform="translate(124,31)"/>
<path d="M0 0 C2.97 0 5.94 0 9 0 C9 0.66 9 1.32 9 2 C6.69 2 4.38 2 2 2 C2 7.28 2 12.56 2 18 C4.31 18 6.62 18 9 18 C8.67 20.31 8.34 22.62 8 25 C10.64 25 13.28 25 16 25 C16 25.33 16 25.66 16 26 C13.03 26 10.06 26 7 26 C7 23.69 7 21.38 7 19 C4.69 19 2.38 19 0 19 C0 12.73 0 6.46 0 0 Z " fill="#413D0B" transform="translate(172,174)"/>
<path d="M0 0 C0.33 0 0.66 0 1 0 C1 7.59 1 15.18 1 23 C1.99 23 2.98 23 4 23 C4 22.34 4 21.68 4 21 C5.98 21 7.96 21 10 21 C10 21.99 10 22.98 10 24 C8.02 24 6.04 24 4 24 C4 25.32 4 26.64 4 28 C1.69 28 -0.62 28 -3 28 C-3 26.68 -3 25.36 -3 24 C-2.01 24 -1.02 24 0 24 C0 16.08 0 8.16 0 0 Z " fill="#BAAFAE" transform="translate(93,158)"/>
<path d="M0 0 C1.32 0 2.64 0 4 0 C4 1.32 4 2.64 4 4 C2.68 4 1.36 4 0 4 C0 4.99 0 5.98 0 7 C-1.32 7 -2.64 7 -4 7 C-4 7.99 -4 8.98 -4 10 C-6.97 10 -9.94 10 -13 10 C-13 9.01 -13 8.02 -13 7 C-11.02 7 -9.04 7 -7 7 C-7 5.68 -7 4.36 -7 3 C-4.69 3 -2.38 3 0 3 C0 2.01 0 1.02 0 0 Z " fill="#060606" transform="translate(162,103)"/>
<path d="M0 0 C0.33 0 0.66 0 1 0 C1 2.31 1 4.62 1 7 C-2.3 7 -5.6 7 -9 7 C-9 7.99 -9 8.98 -9 10 C-11.64 10 -14.28 10 -17 10 C-17 9.01 -17 8.02 -17 7 C-14.69 7 -12.38 7 -10 7 C-10 5.68 -10 4.36 -10 3 C-6.7 3 -3.4 3 0 3 C0 2.01 0 1.02 0 0 Z " fill="#7D7533" transform="translate(79,24)"/>
<path d="M0 0 C0.99 0 1.98 0 3 0 C3 0.99 3 1.98 3 3 C5.31 3 7.62 3 10 3 C10 3.99 10 4.98 10 6 C7.36 6 4.72 6 2 6 C2 6.66 2 7.32 2 8 C-0.31 8 -2.62 8 -5 8 C-4.67 6.35 -4.34 4.7 -4 3 C-2.68 3 -1.36 3 0 3 C0 2.01 0 1.02 0 0 Z " fill="#50DAE7" transform="translate(131,97)"/>
<path d="M0 0 C2.31 0 4.62 0 7 0 C7 1.32 7 2.64 7 4 C5.02 4 3.04 4 1 4 C1 4.99 1 5.98 1 7 C-1.64 7 -4.28 7 -7 7 C-7 5.68 -7 4.36 -7 3 C-4.69 3 -2.38 3 0 3 C0 2.01 0 1.02 0 0 Z " fill="#7A7456" transform="translate(110,172)"/>
<path d="M0 0 C2.31 0 4.62 0 7 0 C7 1.32 7 2.64 7 4 C5.02 4 3.04 4 1 4 C1 4.99 1 5.98 1 7 C-1.64 7 -4.28 7 -7 7 C-7 5.68 -7 4.36 -7 3 C-4.69 3 -2.38 3 0 3 C0 2.01 0 1.02 0 0 Z " fill="#416C70" transform="translate(134,103)"/>
<path d="M0 0 C2.31 0 4.62 0 7 0 C7 1.32 7 2.64 7 4 C5.02 4 3.04 4 1 4 C1 4.99 1 5.98 1 7 C-1.64 7 -4.28 7 -7 7 C-7 5.68 -7 4.36 -7 3 C-4.69 3 -2.38 3 0 3 C0 2.01 0 1.02 0 0 Z " fill="#847C42" transform="translate(55,34)"/>
<path d="M0 0 C2.64 0 5.28 0 8 0 C8 2.31 8 4.62 8 7 C5.36 7 2.72 7 0 7 C0 4.69 0 2.38 0 0 Z " fill="#1A498A" transform="translate(117,79)"/>
<path d="M0 0 C0.33 0 0.66 0 1 0 C1 5.61 1 11.22 1 17 C2.98 17 4.96 17 7 17 C7 17.99 7 18.98 7 20 C9.31 20 11.62 20 14 20 C14 20.33 14 20.66 14 21 C9.38 21 4.76 21 0 21 C0 19.68 0 18.36 0 17 C-0.99 16.67 -1.98 16.34 -3 16 C-2.01 16 -1.02 16 0 16 C0 10.72 0 5.44 0 0 Z " fill="#645B3B" transform="translate(45,86)"/>
<path d="M0 0 C2.31 0 4.62 0 7 0 C7 0.99 7 1.98 7 3 C7.99 3.33 8.98 3.66 10 4 C9.01 4 8.02 4 7 4 C7 11.59 7 19.18 7 27 C6.67 27 6.34 27 6 27 C6 19.41 6 11.82 6 4 C4.02 4 2.04 4 0 4 C0 2.68 0 1.36 0 0 Z " fill="#615C48" transform="translate(166,117)"/>
<path d="M0 0 C2.64 0 5.28 0 8 0 C8 0.99 8 1.98 8 3 C9.98 3 11.96 3 14 3 C14 3.99 14 4.98 14 6 C11.69 6 9.38 6 7 6 C7 5.34 7 4.68 7 4 C4.69 4 2.38 4 0 4 C0 2.68 0 1.36 0 0 Z " fill="#49431C" transform="translate(48,162)"/>
<path d="M0 0 C2.31 0 4.62 0 7 0 C7 1.32 7 2.64 7 4 C5.02 4 3.04 4 1 4 C1 4.99 1 5.98 1 7 C-1.64 7 -4.28 7 -7 7 C-7 6.01 -7 5.02 -7 4 C-4.69 4 -2.38 4 0 4 C0 2.68 0 1.36 0 0 Z " fill="#272424" transform="translate(100,134)"/>
<path d="M0 0 C2.31 0 4.62 0 7 0 C7 0.99 7 1.98 7 3 C5.02 3 3.04 3 1 3 C1 3.99 1 4.98 1 6 C-1.64 6 -4.28 6 -7 6 C-7 4.68 -7 3.36 -7 2 C-4.69 2 -2.38 2 0 2 C0 1.34 0 0.68 0 0 Z " fill="#2E4445" transform="translate(134,59)"/>
<path d="M0 0 C1.32 0 2.64 0 4 0 C4 0.66 4 1.32 4 2 C7.3 2 10.6 2 14 2 C14 3.32 14 4.64 14 6 C10.7 6 7.4 6 4 6 C4 5.01 4 4.02 4 3 C2.68 3 1.36 3 0 3 C0 2.01 0 1.02 0 0 Z " fill="#C8BFBE" transform="translate(42,45)"/>
<path d="M0 0 C1.32 0 2.64 0 4 0 C4 0.99 4 1.98 4 3 C5.98 3 7.96 3 10 3 C10 3.99 10 4.98 10 6 C12.31 6.33 14.62 6.66 17 7 C17 7.99 17 8.98 17 10 C15.68 10 14.36 10 13 10 C13 9.01 13 8.02 13 7 C11.02 7 9.04 7 7 7 C7 6.01 7 5.02 7 4 C4.69 4 2.38 4 0 4 C0 2.68 0 1.36 0 0 Z " fill="#CAC0BF" transform="translate(76,148)"/>
<path d="M0 0 C1.32 0 2.64 0 4 0 C4 0.99 4 1.98 4 3 C5.32 3 6.64 3 8 3 C8 3.99 8 4.98 8 6 C8.99 6 9.98 6 11 6 C11 7.32 11 8.64 11 10 C9.68 10 8.36 10 7 10 C7 9.01 7 8.02 7 7 C5.68 7 4.36 7 3 7 C3 5.68 3 4.36 3 3 C2.01 3 1.02 3 0 3 C0 2.01 0 1.02 0 0 Z " fill="#2A2627" transform="translate(62,100)"/>
<path d="M0 0 C1.32 0 2.64 0 4 0 C4 1.32 4 2.64 4 4 C5.32 4 6.64 4 8 4 C8 4.99 8 5.98 8 7 C8.66 7 9.32 7 10 7 C10 8.32 10 9.64 10 11 C9.01 11 8.02 11 7 11 C7 10.01 7 9.02 7 8 C5.68 7.67 4.36 7.34 3 7 C3 6.01 3 5.02 3 4 C2.01 4 1.02 4 0 4 C0 2.68 0 1.36 0 0 Z " fill="#1E1B1B" transform="translate(52,89)"/>
<path d="M0 0 C2.64 0 5.28 0 8 0 C8 0.99 8 1.98 8 3 C5.69 3 3.38 3 1 3 C1 3.99 1 4.98 1 6 C-1.31 6 -3.62 6 -6 6 C-6 5.01 -6 4.02 -6 3 C-4.02 3 -2.04 3 0 3 C0 2.01 0 1.02 0 0 Z " fill="#AA9C9E" transform="translate(127,152)"/>
<path d="M0 0 C1.32 0 2.64 0 4 0 C4 0.99 4 1.98 4 3 C1.69 3 -0.62 3 -3 3 C-3 11.91 -3 20.82 -3 30 C-3.33 30 -3.66 30 -4 30 C-4 20.76 -4 11.52 -4 2 C-2.68 2 -1.36 2 0 2 C0 1.34 0 0.68 0 0 Z " fill="#6B631A" transform="translate(38,45)"/>
<path d="M0 0 C2.31 0 4.62 0 7 0 C7 1.98 7 3.96 7 6 C4.69 6 2.38 6 0 6 C0 4.02 0 2.04 0 0 Z " fill="#1B4B8B" transform="translate(138,69)"/>
<path d="M0 0 C2.31 0 4.62 0 7 0 C7 2.31 7 4.62 7 7 C5.68 7 4.36 7 3 7 C3 5.68 3 4.36 3 3 C2.01 3 1.02 3 0 3 C0 2.01 0 1.02 0 0 Z " fill="#110C10" transform="translate(159,131)"/>
<path d="M0 0 C0.99 0 1.98 0 3 0 C3 1.32 3 2.64 3 4 C4.32 4 5.64 4 7 4 C7 4.99 7 5.98 7 7 C4.69 7 2.38 7 0 7 C0 4.69 0 2.38 0 0 Z " fill="#0F0E0E" transform="translate(155,134)"/>
<path d="M0 0 C0.99 0 1.98 0 3 0 C3 0.99 3 1.98 3 3 C5.64 3 8.28 3 11 3 C11 4.32 11 5.64 11 7 C9.68 7 8.36 7 7 7 C7 6.01 7 5.02 7 4 C4.69 4 2.38 4 0 4 C0 2.68 0 1.36 0 0 Z " fill="#CABEBE" transform="translate(35,127)"/>
<path d="M0 0 C1.32 0.33 2.64 0.66 4 1 C3.01 1 2.02 1 1 1 C1 2.98 1 4.96 1 7 C-1.64 7 -4.28 7 -7 7 C-7 6.01 -7 5.02 -7 4 C-4.69 4 -2.38 4 0 4 C0 2.68 0 1.36 0 0 Z " fill="#223537" transform="translate(148,96)"/>
<path d="M0 0 C2.31 0 4.62 0 7 0 C7 1.32 7 2.64 7 4 C4.69 4 2.38 4 0 4 C0 2.68 0 1.36 0 0 Z " fill="#070703" transform="translate(90,182)"/>
<path d="M0 0 C2.31 0 4.62 0 7 0 C7 1.32 7 2.64 7 4 C4.69 4 2.38 4 0 4 C0 2.68 0 1.36 0 0 Z " fill="#1D1B10" transform="translate(117,168)"/>
<path d="M0 0 C2.31 0 4.62 0 7 0 C7 1.32 7 2.64 7 4 C4.69 4 2.38 4 0 4 C0 2.68 0 1.36 0 0 Z " fill="#1A180A" transform="translate(62,168)"/>
<path d="M0 0 C2.31 0 4.62 0 7 0 C7 1.32 7 2.64 7 4 C4.69 4 2.38 4 0 4 C0 2.68 0 1.36 0 0 Z " fill="#1A1818" transform="translate(107,158)"/>
<path d="M0 0 C2.31 0 4.62 0 7 0 C7 1.32 7 2.64 7 4 C4.69 4 2.38 4 0 4 C0 2.68 0 1.36 0 0 Z " fill="#2C2912" transform="translate(138,158)"/>
<path d="M0 0 C2.31 0 4.62 0 7 0 C7 1.32 7 2.64 7 4 C4.69 4 2.38 4 0 4 C0 2.68 0 1.36 0 0 Z " fill="#A19294" transform="translate(114,158)"/>
<path d="M0 0 C2.31 0 4.62 0 7 0 C7 1.32 7 2.64 7 4 C4.69 4 2.38 4 0 4 C0 2.68 0 1.36 0 0 Z " fill="#1C1B1B" transform="translate(114,120)"/>
<path d="M0 0 C2.31 0 4.62 0 7 0 C7 1.32 7 2.64 7 4 C4.69 4 2.38 4 0 4 C0 2.68 0 1.36 0 0 Z " fill="#201E1E" transform="translate(104,41)"/>
<path d="M0 0 C2.64 0 5.28 0 8 0 C8 0.33 8 0.66 8 1 C5.69 1 3.38 1 1 1 C1 1.99 1 2.98 1 4 C1.99 4 2.98 4 4 4 C4 5.32 4 6.64 4 8 C2.68 8 1.36 8 0 8 C0 5.36 0 2.72 0 0 Z " fill="#A05596" transform="translate(158,130)"/>
<path d="M0 0 C0.99 0 1.98 0 3 0 C3 2.97 3 5.94 3 9 C2.01 9 1.02 9 0 9 C0 6.03 0 3.06 0 0 Z " fill="#143A80" transform="translate(145,83)"/>
<path d="M0 0 C2.97 0 5.94 0 9 0 C9 0.99 9 1.98 9 3 C6.03 3 3.06 3 0 3 C0 2.01 0 1.02 0 0 Z " fill="#040404" transform="translate(149,28)"/>
<path d="M0 0 C2.97 0 5.94 0 9 0 C9 0.99 9 1.98 9 3 C6.03 3 3.06 3 0 3 C0 2.01 0 1.02 0 0 Z " fill="#040404" transform="translate(70,28)"/>
<path d="M0 0 C2.97 0 5.94 0 9 0 C9 0.99 9 1.98 9 3 C6.03 3 3.06 3 0 3 C0 2.01 0 1.02 0 0 Z " fill="#000000" transform="translate(139,24)"/>
<path d="M0 0 C1.32 0 2.64 0 4 0 C4 0.66 4 1.32 4 2 C7.3 2 10.6 2 14 2 C13.67 3.32 13.34 4.64 13 6 C13 5.01 13 4.02 13 3 C8.71 3 4.42 3 0 3 C0 2.01 0 1.02 0 0 Z " fill="#D1C6C5" transform="translate(42,45)"/>
<path d="M0 0 C2.64 0 5.28 0 8 0 C8 0.99 8 1.98 8 3 C5.36 3 2.72 3 0 3 C0 2.01 0 1.02 0 0 Z " fill="#110F09" transform="translate(48,162)"/>
<path d="M0 0 C1.98 0 3.96 0 6 0 C6 1.32 6 2.64 6 4 C4.02 4 2.04 4 0 4 C0 2.68 0 1.36 0 0 Z " fill="#181707" transform="translate(42,158)"/>
<path d="M0 0 C1.98 0 3.96 0 6 0 C6 1.32 6 2.64 6 4 C4.02 4 2.04 4 0 4 C0 2.68 0 1.36 0 0 Z " fill="#19170F" transform="translate(166,144)"/>
<path d="M0 0 C1.98 0 3.96 0 6 0 C6 1.32 6 2.64 6 4 C4.02 4 2.04 4 0 4 C0 2.68 0 1.36 0 0 Z " fill="#131212" transform="translate(101,134)"/>
<path d="M0 0 C1.98 0 3.96 0 6 0 C6 1.32 6 2.64 6 4 C4.02 4 2.04 4 0 4 C0 2.68 0 1.36 0 0 Z " fill="#100F0F" transform="translate(87,134)"/>
<path d="M0 0 C1.98 0 3.96 0 6 0 C6 1.32 6 2.64 6 4 C4.02 4 2.04 4 0 4 C0 2.68 0 1.36 0 0 Z " fill="#0E1718" transform="translate(121,65)"/>
<path d="M0 0 C1.98 0 3.96 0 6 0 C6 1.32 6 2.64 6 4 C4.02 4 2.04 4 0 4 C0 2.68 0 1.36 0 0 Z " fill="#CBC0C0" transform="translate(87,61)"/>
<path d="M0 0 C1.98 0 3.96 0 6 0 C6 1.32 6 2.64 6 4 C4.02 4 2.04 4 0 4 C0 2.68 0 1.36 0 0 Z " fill="#201F1F" transform="translate(83,51)"/>
<path d="M0 0 C1.98 0 3.96 0 6 0 C6 1.32 6 2.64 6 4 C4.02 4 2.04 4 0 4 C0 2.68 0 1.36 0 0 Z " fill="#1A190C" transform="translate(42,41)"/>
<path d="M0 0 C1.32 0 2.64 0 4 0 C4 1.32 4 2.64 4 4 C0.37 4 -3.26 4 -7 4 C-7 3.67 -7 3.34 -7 3 C-4.69 3 -2.38 3 0 3 C0 2.01 0 1.02 0 0 Z " fill="#47432D" transform="translate(162,103)"/>
<path d="M0 0 C2.31 0 4.62 0 7 0 C7 0.99 7 1.98 7 3 C4.69 3 2.38 3 0 3 C0 2.01 0 1.02 0 0 Z " fill="#252212" transform="translate(83,179)"/>
<path d="M0 0 C2.31 0 4.62 0 7 0 C7 0.99 7 1.98 7 3 C4.69 3 2.38 3 0 3 C0 2.01 0 1.02 0 0 Z " fill="#0B0A01" transform="translate(104,176)"/>
<path d="M0 0 C2.31 0 4.62 0 7 0 C7 0.99 7 1.98 7 3 C4.69 3 2.38 3 0 3 C0 2.01 0 1.02 0 0 Z " fill="#000000" transform="translate(76,176)"/>
<path d="M0 0 C2.31 0 4.62 0 7 0 C7 0.99 7 1.98 7 3 C4.69 3 2.38 3 0 3 C0 2.01 0 1.02 0 0 Z " fill="#030303" transform="translate(131,162)"/>
<path d="M0 0 C2.31 0 4.62 0 7 0 C7 0.99 7 1.98 7 3 C4.69 3 2.38 3 0 3 C0 2.01 0 1.02 0 0 Z " fill="#A39396" transform="translate(107,162)"/>
<path d="M0 0 C2.31 0 4.62 0 7 0 C7 0.99 7 1.98 7 3 C4.69 3 2.38 3 0 3 C0 2.01 0 1.02 0 0 Z " fill="#050500" transform="translate(145,155)"/>
<path d="M0 0 C2.31 0 4.62 0 7 0 C7 0.99 7 1.98 7 3 C4.69 3 2.38 3 0 3 C0 2.01 0 1.02 0 0 Z " fill="#080707" transform="translate(114,155)"/>
<path d="M0 0 C2.31 0 4.62 0 7 0 C7 0.99 7 1.98 7 3 C4.69 3 2.38 3 0 3 C0 2.01 0 1.02 0 0 Z " fill="#090905" transform="translate(35,155)"/>
<path d="M0 0 C2.31 0 4.62 0 7 0 C7 0.99 7 1.98 7 3 C4.69 3 2.38 3 0 3 C0 2.01 0 1.02 0 0 Z " fill="#0A0904" transform="translate(159,148)"/>
<path d="M0 0 C2.31 0 4.62 0 7 0 C7 0.99 7 1.98 7 3 C4.69 3 2.38 3 0 3 C0 2.01 0 1.02 0 0 Z " fill="#0B0B0B" transform="translate(107,131)"/>
<path d="M0 0 C2.31 0 4.62 0 7 0 C7 0.99 7 1.98 7 3 C4.69 3 2.38 3 0 3 C0 2.01 0 1.02 0 0 Z " fill="#040404" transform="translate(114,127)"/>
<path d="M0 0 C2.31 0 4.62 0 7 0 C7 0.99 7 1.98 7 3 C4.69 3 2.38 3 0 3 C0 2.01 0 1.02 0 0 Z " fill="#0C0C06" transform="translate(38,121)"/>
<path d="M0 0 C2.31 0 4.62 0 7 0 C7 0.99 7 1.98 7 3 C4.69 3 2.38 3 0 3 C0 2.01 0 1.02 0 0 Z " fill="#020100" transform="translate(52,107)"/>
<path d="M0 0 C2.31 0 4.62 0 7 0 C7 0.99 7 1.98 7 3 C4.69 3 2.38 3 0 3 C0 2.01 0 1.02 0 0 Z " fill="#163F83" transform="translate(117,103)"/>
<path d="M0 0 C0.99 0 1.98 0 3 0 C3 2.31 3 4.62 3 7 C2.01 7 1.02 7 0 7 C0 4.69 0 2.38 0 0 Z " fill="#164084" transform="translate(131,89)"/>
<path d="M0 0 C2.31 0 4.62 0 7 0 C7 0.99 7 1.98 7 3 C4.69 3 2.38 3 0 3 C0 2.01 0 1.02 0 0 Z " fill="#030708" transform="translate(114,69)"/>
<path d="M0 0 C2.31 0 4.62 0 7 0 C7 0.99 7 1.98 7 3 C4.69 3 2.38 3 0 3 C0 2.01 0 1.02 0 0 Z " fill="#0A0909" transform="translate(141,55)"/>
<path d="M0 0 C2.31 0 4.62 0 7 0 C7 0.99 7 1.98 7 3 C4.69 3 2.38 3 0 3 C0 2.01 0 1.02 0 0 Z " fill="#030303" transform="translate(90,48)"/>
<path d="M0 0 C2.31 0 4.62 0 7 0 C7 0.99 7 1.98 7 3 C4.69 3 2.38 3 0 3 C0 2.01 0 1.02 0 0 Z " fill="#0B0A02" transform="translate(48,38)"/>
<path d="M0 0 C2.31 0 4.62 0 7 0 C7 0.99 7 1.98 7 3 C4.69 3 2.38 3 0 3 C0 2.01 0 1.02 0 0 Z " fill="#060606" transform="translate(117,34)"/>
<path d="M0 0 C2.31 0 4.62 0 7 0 C7 0.99 7 1.98 7 3 C4.69 3 2.38 3 0 3 C0 2.01 0 1.02 0 0 Z " fill="#1C1A0B" transform="translate(159,31)"/>
<path d="M0 0 C2.31 0 4.62 0 7 0 C7 0.99 7 1.98 7 3 C4.69 3 2.38 3 0 3 C0 2.01 0 1.02 0 0 Z " fill="#1B190B" transform="translate(62,31)"/>
<path d="M0 0 C2.31 0 4.62 0 7 0 C7 0.99 7 1.98 7 3 C4.69 3 2.38 3 0 3 C0 2.01 0 1.02 0 0 Z " fill="#060606" transform="translate(131,28)"/>
<path d="M0 0 C1.98 0 3.96 0 6 0 C6 0.99 6 1.98 6 3 C3.69 3 1.38 3 -1 3 C-0.67 2.01 -0.34 1.02 0 0 Z " fill="#ECECE3" transform="translate(53,110)"/>
<path d="M0 0 C0.99 0 1.98 0 3 0 C3 0.99 3 1.98 3 3 C2.34 3 1.68 3 1 3 C1 4.32 1 5.64 1 7 C-1.64 7 -4.28 7 -7 7 C-7 6.67 -7 6.34 -7 6 C-4.69 6 -2.38 6 0 6 C0 4.02 0 2.04 0 0 Z " fill="#2B78A8" transform="translate(124,100)"/>
<path d="M0 0 C6.625 -0.125 6.625 -0.125 10 1 C10 1.99 10 2.98 10 4 C8.68 4 7.36 4 6 4 C6 3.01 6 2.02 6 1 C4.02 1 2.04 1 0 1 C0 0.67 0 0.34 0 0 Z " fill="#BDB0B1" transform="translate(83,154)"/>
<path d="M0 0 C1.98 0 3.96 0 6 0 C6 0.99 6 1.98 6 3 C4.02 3 2.04 3 0 3 C0 2.01 0 1.02 0 0 Z " fill="#1A190E" transform="translate(97,179)"/>
<path d="M0 0 C1.98 0 3.96 0 6 0 C6 0.99 6 1.98 6 3 C4.02 3 2.04 3 0 3 C0 2.01 0 1.02 0 0 Z " fill="#030303" transform="translate(111,172)"/>
<path d="M0 0 C1.98 0 3.96 0 6 0 C6 0.99 6 1.98 6 3 C4.02 3 2.04 3 0 3 C0 2.01 0 1.02 0 0 Z " fill="#080708" transform="translate(70,172)"/>
<path d="M0 0 C1.98 0 3.96 0 6 0 C6 0.99 6 1.98 6 3 C4.02 3 2.04 3 0 3 C0 2.01 0 1.02 0 0 Z " fill="#A39395" transform="translate(121,155)"/>
<path d="M0 0 C1.98 0 3.96 0 6 0 C6 0.99 6 1.98 6 3 C4.02 3 2.04 3 0 3 C0 2.01 0 1.02 0 0 Z " fill="#040404" transform="translate(128,148)"/>
<path d="M0 0 C1.98 0 3.96 0 6 0 C6 0.99 6 1.98 6 3 C4.02 3 2.04 3 0 3 C0 2.01 0 1.02 0 0 Z " fill="#010101" transform="translate(80,131)"/>
<path d="M0 0 C1.98 0 3.96 0 6 0 C6 0.99 6 1.98 6 3 C4.02 3 2.04 3 0 3 C0 2.01 0 1.02 0 0 Z " fill="#111010" transform="translate(121,124)"/>
<path d="M0 0 C1.98 0 3.96 0 6 0 C6 0.99 6 1.98 6 3 C4.02 3 2.04 3 0 3 C0 2.01 0 1.02 0 0 Z " fill="#040303" transform="translate(128,121)"/>
<path d="M0 0 C1.98 0 3.96 0 6 0 C6 0.99 6 1.98 6 3 C4.02 3 2.04 3 0 3 C0 2.01 0 1.02 0 0 Z " fill="#010101" transform="translate(166,117)"/>
<path d="M0 0 C1.98 0 3.96 0 6 0 C6 0.99 6 1.98 6 3 C4.02 3 2.04 3 0 3 C0 2.01 0 1.02 0 0 Z " fill="#000000" transform="translate(135,117)"/>
<path d="M0 0 C1.98 0 3.96 0 6 0 C6 0.99 6 1.98 6 3 C4.02 3 2.04 3 0 3 C0 2.01 0 1.02 0 0 Z " fill="#040404" transform="translate(46,117)"/>
<path d="M0 0 C1.98 0 3.96 0 6 0 C6 0.99 6 1.98 6 3 C4.02 3 2.04 3 0 3 C0 2.01 0 1.02 0 0 Z " fill="#071414" transform="translate(121,110)"/>
<path d="M0 0 C1.98 0 3.96 0 6 0 C6 0.99 6 1.98 6 3 C4.02 3 2.04 3 0 3 C0 2.01 0 1.02 0 0 Z " fill="#151313" transform="translate(60,110)"/>
<path d="M0 0 C1.98 0 3.96 0 6 0 C6 0.99 6 1.98 6 3 C4.02 3 2.04 3 0 3 C0 2.01 0 1.02 0 0 Z " fill="#000000" transform="translate(128,107)"/>
<path d="M0 0 C1.98 0 3.96 0 6 0 C6 0.99 6 1.98 6 3 C4.02 3 2.04 3 0 3 C0 2.01 0 1.02 0 0 Z " fill="#020303" transform="translate(135,103)"/>
<path d="M0 0 C1.98 0 3.96 0 6 0 C6 0.99 6 1.98 6 3 C4.02 3 2.04 3 0 3 C0 2.01 0 1.02 0 0 Z " fill="#050505" transform="translate(46,103)"/>
<path d="M0 0 C0.99 0 1.98 0 3 0 C3 1.98 3 3.96 3 6 C2.01 6 1.02 6 0 6 C0 4.02 0 2.04 0 0 Z " fill="#164084" transform="translate(114,97)"/>
<path d="M0 0 C1.98 0 3.96 0 6 0 C6 0.99 6 1.98 6 3 C4.02 3 2.04 3 0 3 C0 2.01 0 1.02 0 0 Z " fill="#153D82" transform="translate(135,97)"/>
<path d="M0 0 C0.33 0.99 0.66 1.98 1 3 C1.66 3 2.32 3 3 3 C3 4.32 3 5.64 3 7 C2.01 7 1.02 7 0 7 C0 6.01 0 5.02 0 4 C-0.99 3.67 -1.98 3.34 -3 3 C-2.01 3 -1.02 3 0 3 C0 2.01 0 1.02 0 0 Z " fill="#3D3738" transform="translate(59,93)"/>
<path d="M0 0 C1.98 0 3.96 0 6 0 C6 0.99 6 1.98 6 3 C4.02 3 2.04 3 0 3 C0 2.01 0 1.02 0 0 Z " fill="#010303" transform="translate(128,62)"/>
<path d="M0 0 C1.98 0 3.96 0 6 0 C6 0.99 6 1.98 6 3 C4.02 3 2.04 3 0 3 C0 2.01 0 1.02 0 0 Z " fill="#020202" transform="translate(111,38)"/>
<path d="M0 0 C1.98 0 3.96 0 6 0 C6 0.99 6 1.98 6 3 C4.02 3 2.04 3 0 3 C0 2.01 0 1.02 0 0 Z " fill="#030303" transform="translate(56,34)"/>
<path d="M0 0 C1.98 0 3.96 0 6 0 C6 0.99 6 1.98 6 3 C4.02 3 2.04 3 0 3 C0 2.01 0 1.02 0 0 Z " fill="#1B1919" transform="translate(125,31)"/>
</svg>
